<?xml version="1.0" standalone="no"?><!DOCTYPE svg PUBLIC "-//W3C//DTD SVG 1.1//EN" "http://www.w3.org/Graphics/SVG/1.1/DTD/svg11.dtd"><svg t="1522823526682" class="icon" style="" viewBox="0 0 1026 1024" version="1.1" xmlns="http://www.w3.org/2000/svg" p-id="3789" xmlns:xlink="http://www.w3.org/1999/xlink" width="128.25" height="128"><defs><style type="text/css"></style></defs><path d="M914.089433 115.406081 280.27191 115.406081c-16.486583 0-27.477638 12.822898-25.645796 29.309481 1.831843 12.822898 12.822898 21.982111 25.645796 21.982111l633.817523 0c38.468694 0 65.946332 34.805008 60.450804 71.441859l-31.141323 177.688727c-18.318426 109.910553-109.910553 192.343468-221.652949 199.670838L377.359566 641.144893c-14.65474 1.831843-25.645796 12.822898-23.813953 27.477638 0 14.65474 12.822898 25.645796 27.477638 23.813953l342.554557-25.645796c133.724506-9.159213 243.635059-109.910553 267.449012-241.803217l31.141323-179.52057C1036.822884 177.688727 983.69945 115.406081 914.089433 115.406081z" p-id="3790" fill="#08af83"></path><path d="M844.479416 881.116267c-40.300536 0-71.441859 32.973166-71.441859 71.441859 0 40.300536 32.973166 71.441859 71.441859 71.441859 40.300536 0 71.441859-32.973166 71.441859-71.441859C915.921276 912.25759 882.94811 881.116267 844.479416 881.116267z" p-id="3791" fill="#08af83"></path><path d="M329.731659 881.116267c-40.300536 0-71.441859 32.973166-71.441859 71.441859 0 40.300536 32.973166 71.441859 71.441859 71.441859 40.300536 0 71.441859-32.973166 71.441859-71.441859C401.173519 912.25759 370.032195 881.116267 329.731659 881.116267z" p-id="3792" fill="#08af83"></path><path d="M925.080488 776.701242 344.3864 776.701242c-29.309481 0-54.955277-21.982111-60.450804-51.291591l-60.450804-426.819314L188.679783 93.42397C181.352413 40.300536 135.556349 0 82.432915 0L25.645796 0C10.991055 0 0 10.991055 0 25.645796c0 14.65474 10.991055 25.645796 25.645796 25.645796 29.309481 0 73.273702 0 73.273702 0 16.486583 0 34.805008 16.486583 36.636851 34.805008l38.468694 223.484791 60.450804 424.987472c5.495528 53.123434 51.291591 93.42397 104.415025 93.42397l588.021459 0c14.65474 0 25.645796-10.991055 25.645796-25.645796 0 0 0 0 0 0C950.726284 787.692297 939.735229 776.701242 925.080488 776.701242z" p-id="3793" fill="#08af83"></path><path d="M340.722714 573.366718c31.141323-1.831843 179.52057-5.495528 289.431123-14.65474 93.42397-7.32737 148.379247-12.822898 185.016098-45.796064 47.627906-43.964221 58.618962-119.069766 62.282647-137.388191 1.831843-3.663685-1.831843-9.159213-7.32737-9.159213l-558.711978-1.831843c-3.663685 0-7.32737 3.663685-7.32737 7.32737L333.395344 567.871191C333.395344 571.534876 337.059029 573.366718 340.722714 573.366718z" p-id="3794" fill="#08af83"></path></svg>